<svg width="89" height="89" viewBox="0 0 89 89" fill="none" xmlns="http://www.w3.org/2000/svg">
<path d="M38.27 64.97L69.6425 33.5975L63.4125 27.3675L38.27 52.51L25.5875 39.8275L19.3575 46.0575L38.27 64.97ZM44.5 89C38.3442 89 32.5592 87.8311 27.145 85.4934C21.7308 83.1586 17.0212 79.9887 13.0163 75.9837C9.01125 71.9788 5.84137 67.2692 3.5066 61.855C1.16887 56.4408 0 50.6558 0 44.5C0 38.3442 1.16887 32.5592 3.5066 27.145C5.84137 21.7308 9.01125 17.0212 13.0163 13.0163C17.0212 9.01125 21.7308 5.83988 27.145 3.50215C32.5592 1.16738 38.3442 0 44.5 0C50.6558 0 56.4408 1.16738 61.855 3.50215C67.2692 5.83988 71.9788 9.01125 75.9837 13.0163C79.9887 17.0212 83.1586 21.7308 85.4934 27.145C87.8311 32.5592 89 38.3442 89 44.5C89 50.6558 87.8311 56.4408 85.4934 61.855C83.1586 67.2692 79.9887 71.9788 75.9837 75.9837C71.9788 79.9887 67.2692 83.1586 61.855 85.4934C56.4408 87.8311 50.6558 89 44.5 89Z" fill="#42C222"/>
</svg>
