<svg width="26" height="17" viewBox="0 0 26 17" fill="none" xmlns="http://www.w3.org/2000/svg">
<path d="M1.32822 3.92308C0.951894 3.92308 0.636663 3.79754 0.382529 3.54646C0.12751 3.29626 0 2.9859 0 2.61538C0 2.24487 0.12751 1.93408 0.382529 1.683C0.636663 1.4328 0.951894 1.30769 1.32822 1.30769H5.3129C5.68923 1.30769 6.0049 1.4328 6.25992 1.683C6.51406 1.93408 6.64112 2.24487 6.64112 2.61538C6.64112 2.9859 6.51406 3.29626 6.25992 3.54646C6.0049 3.79754 5.68923 3.92308 5.3129 3.92308H1.32822ZM1.32822 10.4615C0.951894 10.4615 0.636663 10.336 0.382529 10.0849C0.12751 9.83472 0 9.52436 0 9.15385C0 8.78333 0.12751 8.47254 0.382529 8.22146C0.636663 7.97126 0.951894 7.84615 1.32822 7.84615H5.3129C5.68923 7.84615 6.0049 7.97126 6.25992 8.22146C6.51406 8.47254 6.64112 8.78333 6.64112 9.15385C6.64112 9.52436 6.51406 9.83472 6.25992 10.0849C6.0049 10.336 5.68923 10.4615 5.3129 10.4615H1.32822ZM23.7752 16.0846L19.5913 11.9654C19.06 12.3359 18.4791 12.6136 17.8487 12.7984C17.2173 12.9841 16.5807 13.0769 15.9387 13.0769C14.1013 13.0769 12.5353 12.4392 11.2408 11.1638C9.9453 9.8892 9.29757 8.34744 9.29757 6.53846C9.29757 4.72949 9.9453 3.18728 11.2408 1.91185C12.5353 0.637282 14.1013 0 15.9387 0C17.7761 0 19.3425 0.637282 20.638 1.91185C21.9325 3.18728 22.5798 4.72949 22.5798 6.53846C22.5798 7.17051 22.486 7.79733 22.2982 8.41892C22.1096 9.03964 21.8272 9.61154 21.4508 10.1346L25.6347 14.2538C25.8782 14.4936 26 14.7987 26 15.1692C26 15.5397 25.8782 15.8449 25.6347 16.0846C25.3912 16.3244 25.0813 16.4442 24.705 16.4442C24.3287 16.4442 24.0187 16.3244 23.7752 16.0846ZM15.9387 10.4615C17.0456 10.4615 17.9864 10.0801 18.7612 9.31731C19.536 8.55449 19.9234 7.6282 19.9234 6.53846C19.9234 5.44872 19.536 4.52244 18.7612 3.75962C17.9864 2.99679 17.0456 2.61538 15.9387 2.61538C14.8318 2.61538 13.891 2.99679 13.1162 3.75962C12.3414 4.52244 11.954 5.44872 11.954 6.53846C11.954 7.6282 12.3414 8.55449 13.1162 9.31731C13.891 10.0801 14.8318 10.4615 15.9387 10.4615ZM1.32822 17C0.951894 17 0.636663 16.8745 0.382529 16.6234C0.12751 16.3732 0 16.0628 0 15.6923C0 15.3218 0.12751 15.0114 0.382529 14.7612C0.636663 14.5102 0.951894 14.3846 1.32822 14.3846H11.954C12.3304 14.3846 12.646 14.5102 12.901 14.7612C13.1552 15.0114 13.2822 15.3218 13.2822 15.6923C13.2822 16.0628 13.1552 16.3732 12.901 16.6234C12.646 16.8745 12.3304 17 11.954 17H1.32822Z" fill="black"/>
</svg>
